<svg width="211" height="30" viewBox="0 0 211 30" fill="none" xmlns="http://www.w3.org/2000/svg">
<path d="M7.42816 5.64404L12.3214 14.3307L6.87671 24.3878H10.3828L14.01 17.5246L17.8727 24.3878H21.4524L10.9987 5.6427L7.42816 5.64404Z" fill="#171717"/>
<path fill-rule="evenodd" clip-rule="evenodd" d="M0 0.968628H28.125V29.0936H0V0.968628ZM2.4848 26.6103H25.6402V3.44522H2.4848V26.6103Z" fill="#171717"/>
<path fill-rule="evenodd" clip-rule="evenodd" d="M115.324 5.18811H111.084V12.1211H111.028C110.415 11.1692 109.104 10.5819 107.431 10.5819C104.168 10.5819 101.295 13.2392 101.323 17.8555C101.323 22.1069 103.916 24.8756 107.152 24.8756C108.909 24.8756 110.554 24.0926 111.418 22.5548H111.474L111.669 24.5659H115.324V5.18811ZM111.028 15.9221C111.06 16.1724 111.079 16.4245 111.084 16.6769V18.4681C111.091 18.7979 111.054 19.1272 110.973 19.4469C110.722 20.6496 109.746 21.4889 108.519 21.4889C106.761 21.4889 105.618 20.0341 105.618 17.7121C105.618 15.5587 106.622 13.8239 108.547 13.8239C109.857 13.8239 110.778 14.7758 111.028 15.9221Z" fill="#171717"/>
<path d="M39.8917 20.9847H47.3652V24.5658H35.625V5.71228H39.8917V20.9847Z" fill="#171717"/>
<path d="M79.0807 10.5751C78.1712 10.5536 77.2734 10.7856 76.4875 11.2455C75.7981 11.6731 75.2006 12.2342 74.7297 12.8959H74.675C74.0895 11.4694 72.6941 10.5738 70.9323 10.5738C68.589 10.5738 67.39 11.8609 66.8046 12.7283H66.7217L66.5265 10.8821H63.0752V24.5577H67.2016V16.5977C67.1888 16.2358 67.2455 15.8749 67.3686 15.5345C67.62 14.8346 68.2616 13.9953 69.3496 13.9953C70.6863 13.9953 71.3012 15.1712 71.3012 16.9048V24.5698H75.4289V16.5656C75.428 16.1953 75.4844 15.8271 75.596 15.4742C75.8753 14.6631 76.5731 13.9914 77.5489 13.9914C78.915 13.9914 79.5539 15.139 79.5539 17.1246V24.5658H83.6816V16.5092C83.683 12.4253 81.7019 10.5791 79.0807 10.5791V10.5751Z" fill="#171717"/>
<path fill-rule="evenodd" clip-rule="evenodd" d="M129.375 16.4797V24.5644H125.72L125.469 23.1942H125.385C124.489 24.2855 123.09 24.8728 121.466 24.8728C118.696 24.8728 117.044 22.8617 117.044 20.6763C117.044 17.1233 120.653 16.0802 125.078 16.0802V15.2489C125.078 14.5222 124.686 13.4858 122.586 13.4858C121.478 13.5003 120.385 13.7474 119.378 14.2112L118.024 11.7804C118.976 11.2441 120.851 10.5737 123.341 10.5737C127.904 10.5764 129.375 13.2619 129.375 16.4797ZM125.216 18.5941C122.865 18.5941 120.974 18.7523 120.964 20.4873C120.964 21.5812 121.97 21.8789 122.921 21.8789C123.407 21.8824 123.881 21.7332 124.278 21.4523C124.674 21.1715 124.974 20.773 125.134 20.3129C125.19 20.0744 125.217 19.8299 125.216 19.5849V18.5941Z" fill="#171717"/>
<path fill-rule="evenodd" clip-rule="evenodd" d="M93.521 24.8502C96.6034 24.8502 99.6858 22.3952 99.6858 17.476H99.6912C99.7192 13.2848 97.352 10.5739 94.1319 10.5739C92.2606 10.5739 90.861 11.3287 90.059 12.5019H90.0042V5.18811H85.8257V24.5431H89.2556L89.4201 22.6433H89.4762C90.4386 24.2628 91.9531 24.8502 93.521 24.8502ZM92.5333 13.8439C94.4875 13.8439 95.4231 15.5199 95.4231 17.6436C95.4231 20.1039 94.3244 21.501 92.5333 21.4983C91.3221 21.4983 90.3517 20.6335 90.0844 19.4872C90.026 19.2399 89.9981 18.9864 90.0015 18.7323V16.7212C89.9998 16.4584 90.0276 16.1961 90.0844 15.9396C90.3584 14.7101 91.4051 13.8439 92.5333 13.8439Z" fill="#171717"/>
<path fill-rule="evenodd" clip-rule="evenodd" d="M61.2305 16.4797V24.5644H57.576L57.3274 23.1942H57.2432C56.3477 24.2855 54.9481 24.8728 53.3254 24.8728C50.5544 24.8728 48.9036 22.8617 48.9036 20.6763C48.9036 17.1233 52.5127 16.0802 56.9357 16.0802V15.2489C56.9357 14.5222 56.5441 13.4858 54.4455 13.4858C53.3375 13.5005 52.2447 13.7476 51.2375 14.2112L49.8794 11.7804C50.8311 11.2441 52.7065 10.5737 55.1981 10.5737C59.7602 10.5764 61.2305 13.2619 61.2305 16.4797ZM57.0734 18.5941C54.7222 18.5941 52.8308 18.7523 52.8201 20.4873C52.8281 21.5812 53.8266 21.8789 54.777 21.8789C55.2626 21.8824 55.7371 21.7332 56.1339 21.4523C56.5307 21.1715 56.8298 20.773 56.9893 20.3129C57.0465 20.0745 57.0748 19.8301 57.0734 19.5849V18.5941Z" fill="#171717"/>
<path d="M137.607 6.75696H142.771C144.003 6.75696 145.133 6.97633 146.163 7.41508C147.209 7.83696 148.103 8.43602 148.846 9.21227C149.588 9.97165 150.162 10.8829 150.567 11.946C150.989 13.0091 151.2 14.182 151.2 15.4645C151.2 16.747 150.989 17.9198 150.567 18.9829C150.162 20.046 149.588 20.9657 148.846 21.742C148.103 22.5013 147.209 23.1004 146.163 23.5391C145.133 23.961 144.003 24.172 142.771 24.172H137.607V6.75696ZM139.227 22.8557H142.67C143.682 22.8557 144.61 22.6785 145.454 22.3241C146.298 21.9529 147.015 21.4466 147.606 20.8054C148.213 20.1473 148.686 19.371 149.023 18.4766C149.361 17.5654 149.529 16.5613 149.529 15.4645C149.529 14.3845 149.361 13.3888 149.023 12.4776C148.686 11.5663 148.213 10.7901 147.606 10.1488C147.015 9.49071 146.298 8.98446 145.454 8.63008C144.61 8.25883 143.682 8.07321 142.67 8.07321H139.227V22.8557Z" fill="#171717"/>
<path d="M153.69 17.7426C153.69 16.7807 153.833 15.9032 154.12 15.1101C154.407 14.317 154.803 13.6335 155.31 13.0598C155.816 12.4691 156.415 12.0135 157.107 11.6929C157.816 11.3723 158.592 11.212 159.436 11.212C160.195 11.212 160.887 11.3638 161.511 11.6676C162.136 11.9713 162.667 12.4016 163.106 12.9585C163.545 13.4985 163.882 14.1482 164.118 14.9076C164.355 15.6501 164.473 16.4685 164.473 17.3629C164.473 17.4979 164.473 17.6329 164.473 17.7679C164.473 17.886 164.464 18.0126 164.448 18.1476H155.31C155.327 18.8901 155.453 19.5735 155.689 20.1979C155.943 20.8223 156.272 21.3538 156.677 21.7926C157.082 22.2313 157.563 22.5773 158.119 22.8304C158.693 23.0666 159.309 23.1848 159.967 23.1848C160.558 23.1848 161.165 23.0835 161.79 22.881C162.414 22.6616 163.038 22.3579 163.663 21.9698V23.4885C162.397 24.1466 161.106 24.4757 159.79 24.4757C158.896 24.4757 158.077 24.3154 157.335 23.9948C156.592 23.6573 155.951 23.1932 155.411 22.6026C154.871 21.9951 154.449 21.2863 154.145 20.4763C153.842 19.6495 153.69 18.7382 153.69 17.7426ZM162.878 16.9579C162.878 16.2998 162.794 15.7007 162.625 15.1607C162.456 14.6207 162.22 14.1566 161.916 13.7685C161.613 13.3635 161.241 13.0513 160.803 12.832C160.381 12.6126 159.908 12.5029 159.385 12.5029C158.811 12.5029 158.28 12.6126 157.79 12.832C157.318 13.0513 156.904 13.3551 156.55 13.7432C156.196 14.1313 155.909 14.6038 155.689 15.1607C155.47 15.7007 155.343 16.2998 155.31 16.9579H162.878Z" fill="#171717"/>
<path d="M167.604 11.5157H169.199V12.9585C170.448 11.7941 171.764 11.212 173.148 11.212C173.975 11.212 174.7 11.3891 175.325 11.7435C175.949 12.081 176.43 12.5704 176.768 13.2116C178.134 11.8785 179.603 11.212 181.172 11.212C181.763 11.212 182.303 11.3132 182.792 11.5157C183.281 11.7182 183.703 12.0051 184.058 12.3763C184.412 12.7307 184.682 13.161 184.868 13.6673C185.07 14.1735 185.171 14.7304 185.171 15.3379V24.172H183.602V15.5404C183.602 14.6629 183.34 13.9457 182.817 13.3888C182.311 12.832 181.644 12.5535 180.818 12.5535C179.569 12.5535 178.362 13.1863 177.198 14.452V24.172H175.629V15.5404C175.629 14.6629 175.359 13.9457 174.819 13.3888C174.295 12.832 173.629 12.5535 172.819 12.5535C172.228 12.5535 171.621 12.7138 170.996 13.0345C170.372 13.3551 169.773 13.8276 169.199 14.452V24.172H167.604V11.5157Z" fill="#171717"/>
<path d="M188.346 17.8438C188.346 16.8651 188.49 15.9707 188.776 15.1607C189.08 14.3507 189.494 13.6588 190.017 13.0851C190.54 12.4945 191.164 12.0388 191.89 11.7182C192.632 11.3807 193.442 11.212 194.32 11.212C195.18 11.212 195.974 11.3807 196.699 11.7182C197.425 12.0388 198.049 12.4945 198.572 13.0851C199.095 13.6588 199.5 14.3507 199.787 15.1607C200.091 15.9707 200.243 16.8651 200.243 17.8438C200.243 18.8226 200.091 19.717 199.787 20.527C199.5 21.337 199.095 22.0373 198.572 22.6279C198.049 23.2016 197.425 23.6573 196.699 23.9948C195.974 24.3154 195.18 24.4757 194.32 24.4757C193.442 24.4757 192.632 24.3154 191.89 23.9948C191.164 23.6573 190.54 23.2016 190.017 22.6279C189.494 22.0373 189.08 21.337 188.776 20.527C188.49 19.717 188.346 18.8226 188.346 17.8438ZM189.991 17.8438C189.991 18.637 190.093 19.3626 190.295 20.0207C190.515 20.662 190.81 21.2188 191.181 21.6913C191.569 22.147 192.025 22.5098 192.548 22.7798C193.088 23.0329 193.679 23.1595 194.32 23.1595C194.944 23.1595 195.518 23.0329 196.041 22.7798C196.581 22.5098 197.037 22.147 197.408 21.6913C197.796 21.2188 198.091 20.662 198.294 20.0207C198.513 19.3626 198.623 18.637 198.623 17.8438C198.623 17.0676 198.513 16.3504 198.294 15.6923C198.091 15.0341 197.796 14.4773 197.408 14.0216C197.037 13.5491 196.581 13.1863 196.041 12.9332C195.518 12.6632 194.944 12.5282 194.32 12.5282C193.679 12.5282 193.088 12.6632 192.548 12.9332C192.025 13.1863 191.569 13.5491 191.181 14.0216C190.81 14.4773 190.515 15.0341 190.295 15.6923C190.093 16.3504 189.991 17.0676 189.991 17.8438Z" fill="#171717"/>
<path d="M202.839 21.9951C203.987 22.7882 205.151 23.1848 206.332 23.1848C207.176 23.1848 207.868 22.9738 208.408 22.552C208.965 22.1301 209.243 21.5732 209.243 20.8813C209.243 20.3413 209.075 19.9195 208.737 19.6157C208.416 19.2951 208.011 19.0335 207.522 18.831C207.033 18.6116 206.501 18.4176 205.927 18.2488C205.354 18.0632 204.822 17.8354 204.333 17.5654C203.843 17.2954 203.43 16.941 203.092 16.5023C202.772 16.0635 202.611 15.4813 202.611 14.7557C202.611 14.2326 202.713 13.7516 202.915 13.3129C203.135 12.8741 203.43 12.5029 203.801 12.1991C204.189 11.8785 204.645 11.6338 205.168 11.4651C205.691 11.2963 206.265 11.212 206.889 11.212C207.986 11.212 209.091 11.4566 210.205 11.946V13.4901C209.142 12.832 208.079 12.5029 207.016 12.5029C206.189 12.5029 205.506 12.7054 204.966 13.1104C204.442 13.5154 204.181 14.047 204.181 14.7051C204.181 15.2282 204.341 15.6416 204.662 15.9454C204.999 16.2491 205.413 16.5023 205.902 16.7048C206.391 16.9073 206.923 17.1013 207.497 17.287C208.071 17.4557 208.602 17.6835 209.091 17.9704C209.581 18.2404 209.986 18.6032 210.306 19.0588C210.644 19.4976 210.813 20.0882 210.813 20.8307C210.813 21.3707 210.703 21.8685 210.484 22.3241C210.281 22.7629 209.986 23.1426 209.598 23.4632C209.21 23.7838 208.746 24.0285 208.206 24.1973C207.666 24.3829 207.075 24.4757 206.434 24.4757C205.252 24.4757 204.054 24.1804 202.839 23.5898V21.9951Z" fill="#171717"/>
</svg>
